<?xml version="1.0" encoding="utf-8"?>
<!-- Generator: Adobe Illustrator 23.0.0, SVG Export Plug-In . SVG Version: 6.00 Build 0)  -->
<svg version="1.1" id="Layer_1" xmlns="http://www.w3.org/2000/svg" xmlns:xlink="http://www.w3.org/1999/xlink" x="0px" y="0px"
	 viewBox="0 0 176 47" style="enable-background:new 0 0 176 47;" xml:space="preserve">
<style type="text/css">
	.st0{fill:none;}
	.st1{fill:none;stroke:#000000;stroke-width:2;}
	.st2{enable-background:new    ;}
	.st3{fill:#FFFFFF;}
	.st4{fill:#707070;}
	.st5{font-family:'Montserrat-Bold';}
	.st6{font-size:26px;}
</style>
<g id="Group_2" transform="translate(-140 -132)">
	<g id="Rectangle_6" transform="translate(238 132)">
		<rect class="st0" width="78" height="47"/>
		<rect x="1" y="1" class="st1" width="76" height="45"/>
	</g>
	<rect id="Rectangle_5" x="140" y="132" width="99" height="47"/>
	<g class="st2">
		<path class="st3" d="M155,164.7c-1.3-0.4-2.4-0.9-3.2-1.5l1.4-3.2c0.8,0.6,1.7,1,2.8,1.4s2.1,0.5,3.2,0.5c1.2,0,2.1-0.2,2.7-0.5
			c0.6-0.4,0.9-0.8,0.9-1.4c0-0.4-0.2-0.8-0.5-1.1s-0.8-0.5-1.3-0.7c-0.5-0.2-1.2-0.4-2.1-0.6c-1.4-0.3-2.5-0.7-3.4-1
			c-0.9-0.3-1.6-0.9-2.3-1.6c-0.6-0.7-0.9-1.7-0.9-2.9c0-1.1,0.3-2,0.9-2.9c0.6-0.9,1.4-1.5,2.6-2c1.2-0.5,2.6-0.8,4.2-0.8
			c1.2,0,2.3,0.1,3.4,0.4c1.1,0.3,2.1,0.7,2.9,1.2l-1.3,3.2c-1.7-1-3.4-1.4-5-1.4c-1.2,0-2,0.2-2.6,0.6c-0.6,0.4-0.8,0.9-0.8,1.5
			s0.3,1.1,1,1.4c0.6,0.3,1.6,0.6,3,0.9c1.4,0.3,2.5,0.7,3.4,1c0.9,0.3,1.6,0.8,2.3,1.6c0.6,0.7,0.9,1.7,0.9,2.9c0,1-0.3,2-0.9,2.8
			c-0.6,0.9-1.5,1.5-2.6,2c-1.2,0.5-2.6,0.8-4.2,0.8C157.7,165.3,156.3,165.1,155,164.7z"/>
		<path class="st3" d="M182.2,152.4c1.1,1,1.6,2.6,1.6,4.6v8h-4.1v-7.4c0-1.1-0.2-1.9-0.7-2.5c-0.5-0.5-1.2-0.8-2.1-0.8
			c-1,0-1.8,0.3-2.4,0.9c-0.6,0.6-0.9,1.6-0.9,2.8v6.9h-4.1v-19.3h4.1v6.8c0.5-0.5,1.2-0.9,1.9-1.2c0.8-0.3,1.6-0.4,2.5-0.4
			C179.7,150.8,181.1,151.3,182.2,152.4z"/>
		<path class="st3" d="M190.3,164.3c-1.2-0.6-2.1-1.5-2.7-2.6c-0.7-1.1-1-2.3-1-3.7s0.3-2.6,1-3.7s1.6-1.9,2.7-2.6
			c1.2-0.6,2.5-0.9,4-0.9s2.8,0.3,4,0.9c1.2,0.6,2.1,1.5,2.7,2.6s1,2.3,1,3.7s-0.3,2.6-1,3.7c-0.7,1.1-1.6,1.9-2.7,2.6
			c-1.2,0.6-2.5,0.9-4,0.9S191.4,164.9,190.3,164.3z M196.8,160.8c0.7-0.7,1-1.6,1-2.8s-0.3-2.1-1-2.8c-0.7-0.7-1.5-1.1-2.6-1.1
			s-1.9,0.4-2.6,1.1c-0.7,0.7-1,1.6-1,2.8s0.3,2.1,1,2.8c0.7,0.7,1.5,1.1,2.6,1.1S196.1,161.5,196.8,160.8z"/>
		<path class="st3" d="M210.4,151.3c0.8-0.3,1.8-0.5,2.8-0.5v3.7c-0.5,0-0.8-0.1-0.9-0.1c-1.2,0-2.1,0.3-2.7,1c-0.7,0.7-1,1.6-1,2.9
			v6.6h-4.1v-14h3.9v1.8C209,152.2,209.6,151.7,210.4,151.3z"/>
		<path class="st3" d="M225.2,164.3c-0.4,0.3-0.9,0.5-1.5,0.7c-0.6,0.1-1.2,0.2-1.8,0.2c-1.7,0-3-0.4-3.9-1.3
			c-0.9-0.8-1.4-2.1-1.4-3.7v-5.7h-2.2v-3.1h2.2v-3.4h4.1v3.4h3.5v3.1h-3.5v5.7c0,0.6,0.2,1,0.5,1.4c0.3,0.3,0.7,0.5,1.3,0.5
			c0.6,0,1.2-0.2,1.6-0.5L225.2,164.3z"/>
	</g>
	<text transform="matrix(1 0 0 1 225.6453 165)" class="st4 st5 st6">   </text>
	<g class="st2">
		<path d="M251.9,163.2c-1.4-1.4-2.2-3.5-2.2-6.2v-10.2h4.2v10c0,3.3,1.4,4.9,4.1,4.9c1.3,0,2.3-0.4,3-1.2c0.7-0.8,1-2,1-3.7v-10
			h4.2V157c0,2.7-0.7,4.7-2.2,6.2s-3.5,2.2-6.1,2.2C255.4,165.3,253.3,164.6,251.9,163.2z"/>
		<path d="M282,165l-3.5-5.1h-0.2h-3.7v5.1h-4.2v-18.2h7.9c1.6,0,3,0.3,4.2,0.8c1.2,0.5,2.1,1.3,2.7,2.3c0.6,1,1,2.2,1,3.5
			c0,1.4-0.3,2.5-1,3.5c-0.6,1-1.6,1.7-2.8,2.2l4.1,5.8H282z M280.9,151.1c-0.7-0.5-1.6-0.8-2.9-0.8h-3.4v6.3h3.4
			c1.3,0,2.2-0.3,2.9-0.8c0.7-0.6,1-1.3,1-2.3C281.9,152.4,281.6,151.6,280.9,151.1z"/>
		<path d="M289.5,146.8h4.2v14.8h9.1v3.4h-13.3V146.8z"/>
	</g>
</g>
</svg>
